<?xml version="1.0" standalone="no"?>
<!DOCTYPE svg PUBLIC "-//W3C//DTD SVG 20010904//EN"
 "http://www.w3.org/TR/2001/REC-SVG-20010904/DTD/svg10.dtd">
<svg version="1.0" xmlns="http://www.w3.org/2000/svg"
 width="512.000000pt" height="397.000000pt" viewBox="0 0 512.000000 397.000000"
 preserveAspectRatio="xMidYMid meet">

<g transform="translate(0.000000,397.000000) scale(0.100000,-0.100000)"
fill="#000000" stroke="none">
<path d="M2793 3412 l-63 -3 0 -159 0 -160 65 0 c51 0 65 3 65 15 0 19 30 19
56 0 12 -9 43 -14 89 -14 l70 0 -31 28 -31 28 28 15 c42 25 64 66 63 119 -1
110 -77 142 -311 131z m162 -78 c60 -55 7 -164 -81 -164 -19 0 -21 186 -2 192
22 8 57 -4 83 -28z"/>
<path d="M3203 3412 l-63 -3 0 -254 0 -255 60 0 60 0 0 110 c0 105 1 110 21
110 53 0 76 -33 104 -147 l17 -73 65 0 c57 0 64 2 59 18 -2 9 -14 54 -26 100
-17 64 -29 88 -52 107 -16 14 -25 25 -19 25 14 0 81 65 81 79 0 7 -22 11 -60
11 -54 0 -63 -3 -88 -30 -18 -20 -38 -31 -62 -32 l-35 -3 -3 91 c-2 82 -1 92
16 96 27 7 90 -21 97 -43 5 -16 16 -19 71 -19 69 0 73 4 50 49 -28 52 -116 71
-293 63z"/>
<path d="M3676 3405 c-22 -8 -55 -30 -75 -49 -30 -30 -35 -41 -33 -76 2 -34 0
-40 -17 -40 -16 0 -21 -9 -26 -52 -13 -108 33 -219 111 -264 83 -48 232 -44
314 10 19 13 49 47 65 77 28 50 30 62 30 149 -1 78 -5 102 -23 137 -28 53 -83
98 -138 112 -59 15 -161 13 -208 -4z m183 -83 c20 -21 42 -57 49 -79 15 -51
15 -130 0 -173 -9 -26 -9 -35 0 -38 7 -2 12 -12 12 -23 0 -13 -7 -19 -22 -19
-13 0 -41 -10 -64 -22 -49 -26 -80 -20 -123 23 -32 31 -61 110 -61 164 0 58
29 134 66 170 50 50 94 49 143 -3z"/>
<path d="M4143 3412 l-63 -3 0 -254 0 -255 60 0 60 0 0 40 c0 33 -3 40 -20 40
-16 0 -20 7 -20 30 0 23 4 30 20 30 17 0 20 7 20 40 0 35 3 40 23 40 32 0 62
-24 77 -61 13 -31 14 -31 69 -25 64 8 65 8 56 35 -4 15 -15 21 -36 21 -30 0
-38 17 -17 38 9 9 9 12 -2 12 -7 0 5 13 28 30 49 35 67 85 52 142 -11 39 -57
85 -93 93 -30 7 -140 11 -214 7z m140 -63 c71 -32 57 -136 -22 -169 -54 -22
-61 -11 -61 90 l0 90 30 0 c16 0 40 -5 53 -11z"/>
<path d="M480 3230 l0 -180 60 0 c33 0 60 -4 60 -10 0 -6 -27 -10 -60 -10 -53
0 -60 -2 -60 -20 0 -18 7 -20 65 -20 l65 0 0 70 0 70 95 0 c93 0 95 0 95 24 0
20 -6 24 -46 30 -26 3 -69 6 -95 6 l-49 0 0 85 0 85 105 0 105 0 0 25 0 25
-170 0 -170 0 0 -180z"/>
<path d="M925 3393 c-8 -20 -135 -396 -135 -400 0 -2 29 -3 64 -3 63 0 63 0
72 33 10 32 10 32 74 32 l64 0 25 -77 25 -78 63 0 c35 0 63 4 63 9 0 5 -20 67
-45 138 -25 70 -45 129 -45 131 0 1 -11 2 -25 2 -20 0 -25 5 -25 25 0 16 6 25
15 25 18 0 18 -1 4 39 -6 17 -15 31 -19 31 -5 0 -8 12 -8 28 0 15 -5 39 -11
55 -10 26 -14 27 -80 27 -56 0 -70 -3 -76 -17z m104 -226 l20 -57 -49 0 -48 0
21 65 c12 36 25 61 29 57 4 -4 16 -33 27 -65z"/>
<path d="M1240 3395 c0 -11 -12 -15 -45 -15 -25 0 -45 -4 -45 -10 0 -6 32 -10
75 -10 60 0 75 -3 75 -15 0 -12 14 -15 65 -15 51 0 65 3 65 15 0 12 15 15 78
15 76 0 77 0 77 25 l0 25 -172 0 c-147 0 -173 -2 -173 -15z"/>
<path d="M1577 3155 l-85 -255 63 0 63 0 27 80 27 80 62 0 62 0 25 -77 25 -78
67 -3 66 -3 -47 136 c-26 74 -52 135 -59 135 -7 0 -10 9 -8 22 3 13 -10 67
-27 120 l-32 98 -72 0 -72 0 -85 -255z m176 37 c9 -26 19 -56 23 -65 5 -14 -1
-17 -40 -17 -25 0 -46 4 -46 9 0 7 14 52 35 109 7 20 12 14 28 -36z"/>
<path d="M1990 3355 l0 -55 65 0 65 0 0 55 0 55 -65 0 -65 0 0 -55z"/>
<path d="M2350 3155 l0 -255 175 0 175 0 0 25 0 25 -110 0 -110 0 0 95 0 95
100 0 100 0 0 25 0 25 -100 0 -100 0 0 85 0 85 105 0 105 0 0 25 0 25 -170 0
-170 0 0 -255z"/>
<path d="M1300 3100 l0 -200 65 0 65 0 0 200 0 200 -65 0 -65 0 0 -200z"/>
<path d="M1990 3245 c0 -12 14 -15 65 -15 51 0 65 3 65 15 0 12 -14 15 -65 15
-51 0 -65 -3 -65 -15z"/>
<path d="M1997 3163 c-4 -3 -7 -64 -7 -135 l0 -128 175 0 175 0 0 25 0 25
-110 0 -110 0 0 110 0 110 -58 0 c-32 0 -62 -3 -65 -7z"/>
<path d="M3070 3062 c0 -20 -5 -22 -56 -22 -48 0 -55 -2 -51 -17 3 -10 11 -42
18 -70 l13 -53 64 0 c62 0 64 1 58 23 -4 12 -13 51 -22 87 -17 70 -24 86 -24
52z"/>
<path d="M2730 2973 l0 -73 65 0 65 0 0 69 0 69 -65 4 -65 3 0 -72z"/>
<path d="M4324 2964 c3 -9 9 -27 12 -40 6 -22 11 -24 71 -24 70 0 66 -5 47 60
-5 17 -14 20 -71 20 -55 0 -64 -2 -59 -16z"/>
<path d="M480 2930 l0 -30 65 0 65 0 0 30 0 30 -65 0 -65 0 0 -30z"/>
<path d="M770 2934 c-6 -14 -10 -27 -10 -30 0 -7 130 -4 130 4 0 4 3 17 6 30
6 21 4 22 -55 22 -57 0 -62 -2 -71 -26z"/>
<path d="M2334 2581 c-40 -11 -96 -32 -125 -48 l-54 -28 298 -3 c289 -2 297
-3 297 -22 0 -20 -7 -20 -324 -20 l-324 0 -45 -49 c-55 -62 -111 -173 -137
-274 -50 -198 -41 -521 19 -679 l11 -28 215 0 215 0 0 -35 0 -35 -200 0 c-110
0 -200 -2 -200 -5 0 -3 7 -17 16 -30 l16 -25 334 0 c327 0 334 0 334 -20 0
-20 -7 -20 -322 -20 l-323 -1 60 -57 c118 -112 267 -158 479 -150 247 10 409
105 510 298 35 66 69 171 81 248 l7 42 -169 0 c-150 1 -166 2 -149 15 16 12
54 15 174 15 l155 0 -6 188 c-5 175 -16 256 -46 335 l-11 27 -235 0 -235 0 0
35 0 35 198 0 c108 0 207 3 219 6 21 6 21 8 8 27 -23 33 -19 37 34 37 l48 0
-6 33 c-6 29 -10 32 -48 35 -37 3 -41 1 -47 -24 -7 -26 -7 -26 -74 38 -121
117 -207 149 -422 154 -130 3 -166 1 -226 -15z m516 -186 c0 -41 -17 -47 -26
-9 -4 17 -2 29 7 35 19 12 19 13 19 -26z m-257 -285 c49 -39 62 -97 62 -280 0
-179 -10 -236 -50 -276 -34 -34 -68 -39 -112 -17 -64 31 -77 73 -81 248 -4
162 7 255 37 295 37 51 100 64 144 30z"/>
<path d="M1042 2453 l-70 -98 74 -3 c103 -4 93 -22 -11 -22 -50 0 -85 -4 -85
-10 0 -6 30 -10 70 -10 63 0 70 -2 70 -20 0 -18 -7 -20 -88 -20 l-88 0 -212
-302 -212 -303 0 -57 0 -58 270 0 c233 0 270 -2 270 -15 0 -13 -37 -15 -270
-15 l-270 0 0 -35 0 -35 485 0 c317 0 485 -3 485 -10 0 -7 -168 -10 -485 -10
l-484 0 3 -81 3 -80 284 1 c156 0 299 -2 317 -6 l32 -6 0 -109 0 -109 248 1
c136 0 255 4 266 8 17 6 18 18 17 109 l-2 102 33 1 c18 1 42 3 53 4 11 1 30 2
43 3 19 2 22 8 22 47 l0 45 -49 0 c-48 0 -49 0 -53 35 l-4 35 53 0 53 0 0 135
0 135 -76 0 -76 0 4 80 c3 88 2 90 -58 90 l-34 0 0 50 c0 49 1 50 30 51 17 1
36 2 43 3 8 1 14 25 17 68 l5 67 -40 3 -40 3 0 50 0 50 38 3 c34 3 37 1 37
-22 0 -25 2 -26 64 -26 36 0 68 -4 71 -10 3 -5 28 -10 55 -10 48 0 49 1 48 30
-1 29 -3 30 -50 30 -47 0 -48 1 -48 30 0 29 0 29 -67 32 -48 2 -67 7 -65 16 1
9 -34 12 -153 12 -97 0 -155 4 -155 10 0 6 58 10 155 10 97 0 155 4 155 10 0
6 -69 10 -186 10 -171 0 -185 1 -182 18 3 15 22 18 183 22 l180 5 0 73 c0 62
-2 72 -17 72 -10 0 -18 5 -18 10 0 6 -93 10 -260 10 l-259 0 -69 -97z m198
-129 l0 -55 -32 3 c-30 3 -33 6 -36 42 -5 53 3 66 38 66 30 0 30 0 30 -56z
m60 -130 c0 -34 -1 -35 -32 -32 -29 3 -33 7 -36 36 -3 31 -2 32 32 32 35 0 36
-1 36 -36z m190 -179 c0 -33 -2 -35 -35 -35 -33 0 -35 2 -35 35 0 33 2 35 35
35 33 0 35 -2 35 -35z m-320 -242 l0 -73 -61 0 c-61 0 -61 0 -47 23 8 12 32
50 54 84 45 73 54 68 54 -34z m-370 -73 l0 -50 -35 0 -35 0 0 50 0 50 35 0 35
0 0 -50z m-160 -70 c0 -20 -5 -30 -15 -30 -10 0 -15 10 -15 30 0 20 5 30 15
30 10 0 15 -10 15 -30z"/>
<path d="M3866 2517 c-15 -19 -26 -37 -26 -40 0 -4 20 -7 45 -7 25 0 45 -4 45
-10 0 -5 -24 -10 -54 -10 -30 0 -58 -4 -61 -10 -4 -6 12 -10 39 -10 39 0 46
-3 46 -20 0 -18 -7 -20 -62 -20 l-63 -1 -175 -251 c-96 -138 -210 -300 -252
-359 l-77 -109 286 -2 c218 -2 287 -6 291 -15 3 -10 -59 -13 -287 -13 l-291 0
0 -35 0 -35 500 0 c327 0 500 -3 500 -10 0 -7 -173 -10 -500 -10 l-500 0 0
-140 0 -140 289 0 c159 0 303 -3 320 -6 l31 -6 0 -109 0 -109 250 0 250 0 0
25 c0 16 6 25 15 25 12 0 15 16 15 85 l0 85 44 0 c24 0 57 3 74 6 l31 6 3 214
3 214 -78 0 -78 0 3 140 3 139 -30 3 c-28 3 -30 6 -30 43 -1 56 3 65 34 65 26
0 26 0 23 69 -3 63 -6 70 -25 73 -19 3 -22 10 -23 51 -1 45 1 48 27 54 24 5
27 9 24 35 -2 17 -7 33 -10 37 -4 3 -68 8 -143 10 -171 4 -148 19 31 20 83 1
126 5 122 11 -4 6 -70 10 -165 10 -126 0 -159 3 -163 14 -8 21 23 26 184 26
134 0 147 2 145 18 0 9 -10 20 -21 24 -11 3 -136 6 -277 7 l-257 1 -25 -33z
m192 -74 l3 -53 -40 0 -41 0 0 49 c0 52 8 61 50 58 23 -2 25 -7 28 -54z m60
-132 c3 -27 0 -32 -15 -29 -19 3 -28 30 -19 54 10 26 31 10 34 -25z m182 -176
c0 -33 -2 -35 -35 -35 -32 0 -35 3 -35 28 0 36 6 42 42 42 25 0 28 -3 28 -35z
m-682 -322 l3 -53 -40 0 -41 0 0 48 c0 58 5 64 45 60 29 -3 30 -5 33 -55z
m332 -40 l0 -73 -61 0 c-33 0 -59 4 -57 9 2 4 25 42 53 84 31 48 53 71 57 64
4 -7 8 -45 8 -84z m-500 -28 c0 -26 -3 -33 -15 -29 -9 4 -15 19 -15 35 0 19 5
29 15 29 10 0 15 -11 15 -35z"/>
<path d="M4470 2335 l0 -55 70 0 c40 0 70 -4 70 -10 0 -5 23 -10 51 -10 l50 0
-3 33 c-3 31 -5 32 -50 35 -46 3 -48 5 -48 33 l0 29 -70 0 -70 0 0 -55z"/>
<path d="M3370 2080 c0 -29 1 -30 50 -30 49 0 50 1 50 30 0 29 -1 30 -50 30
-49 0 -50 -1 -50 -30z"/>
<path d="M3240 1960 l0 -50 89 0 89 0 -1 50 -1 50 -88 0 -88 0 0 -50z"/>
<path d="M280 1700 l0 -50 90 0 90 0 0 50 0 50 -90 0 -90 0 0 -50z"/>
<path d="M420 740 c0 -18 7 -20 60 -20 57 0 60 -1 60 -25 0 -21 5 -25 30 -25
25 0 30 4 30 25 0 24 3 25 60 25 53 0 60 2 60 20 0 19 -7 20 -150 20 -143 0
-150 -1 -150 -20z"/>
<path d="M752 716 c19 -41 26 -46 55 -46 l32 0 -19 43 c-17 37 -23 42 -55 45
l-35 3 22 -45z"/>
<path d="M957 715 l-16 -45 30 0 c25 0 33 6 49 43 10 23 19 34 19 25 1 -15 11
-18 61 -18 57 0 60 -1 60 -25 0 -21 5 -25 30 -25 25 0 30 4 30 25 0 24 3 25
60 25 53 0 60 2 60 20 0 19 -7 20 -184 20 l-184 0 -15 -45z"/>
<path d="M1490 715 c0 -43 1 -45 30 -45 29 0 30 2 30 45 0 43 -1 45 -30 45
-29 0 -30 -2 -30 -45z"/>
<path d="M1720 680 l0 -80 -85 0 c-69 0 -85 3 -85 15 0 10 -10 15 -30 15 l-30
0 0 -125 0 -125 30 0 30 0 0 90 0 90 85 0 85 0 0 -90 0 -90 30 0 c29 0 30 1
30 50 0 38 -4 50 -15 50 -8 0 -15 9 -15 20 0 11 7 20 15 20 8 0 15 7 15 15 0
9 -9 15 -21 15 -12 0 -19 5 -16 13 2 6 10 12 18 12 11 0 15 21 17 93 l3 92
-31 0 -30 0 0 -80z"/>
<path d="M1860 665 c0 -99 3 -105 44 -89 13 5 16 23 16 95 l0 89 -30 0 -30 0
0 -95z"/>
<path d="M2045 675 c-30 -47 -55 -89 -55 -95 0 -8 61 -5 65 3 1 1 11 18 23 37
l22 35 0 -42 c0 -45 1 -46 38 -37 21 6 22 11 22 95 l0 89 -30 0 c-27 0 -36 -9
-85 -85z"/>
<path d="M2220 684 c0 -41 4 -83 9 -93 12 -22 68 -22 62 -1 -2 8 -6 50 -9 93
l-5 77 -28 0 -29 0 0 -76z"/>
<path d="M2430 665 c0 -93 0 -95 23 -91 12 3 25 5 30 5 4 1 7 42 7 91 l0 90
-30 0 -30 0 0 -95z"/>
<path d="M2562 668 l3 -93 63 1 c34 0 62 -3 62 -8 0 -4 18 -8 40 -8 33 0 40 3
40 20 0 18 -7 20 -75 20 l-75 0 0 60 0 60 80 0 c73 0 80 2 80 20 0 19 -7 20
-110 20 l-111 0 3 -92z"/>
<path d="M2840 630 l0 -130 30 0 30 0 0 75 c0 73 -1 75 -25 75 -14 0 -25 5
-25 10 0 6 11 10 25 10 20 0 25 5 25 25 0 25 1 25 80 25 73 0 80 2 80 20 0 19
-7 20 -110 20 l-110 0 0 -130z"/>
<path d="M3142 743 c-18 -9 -42 -28 -53 -42 l-21 -26 31 -3 c22 -2 40 4 62 22
40 34 88 34 127 1 28 -24 92 -35 92 -17 0 14 -54 60 -83 71 -41 16 -117 13
-155 -6z"/>
<path d="M3579 758 c-1 -2 -2 -22 -3 -45 -1 -42 -1 -43 32 -43 33 0 33 0 30
43 -3 38 -6 42 -30 45 -16 2 -29 2 -29 0z"/>
<path d="M3810 715 c0 -43 1 -45 30 -45 29 0 30 2 30 45 0 43 -1 45 -30 45
-29 0 -30 -2 -30 -45z"/>
<path d="M3948 715 c-3 -45 -3 -45 29 -45 29 0 33 3 33 25 0 24 2 25 75 25 68
0 75 2 75 20 0 19 -7 20 -104 20 l-104 0 -4 -45z"/>
<path d="M4180 740 c0 -18 7 -20 60 -20 l60 0 0 -170 0 -170 30 0 30 0 0 170
0 170 55 0 c48 0 55 2 55 20 0 19 -7 20 -145 20 -138 0 -145 -1 -145 -20z"/>
<path d="M3057 643 c-4 -3 -7 -37 -7 -75 l0 -68 33 0 32 0 1 75 c0 75 0 75
-26 75 -15 0 -30 -3 -33 -7z"/>
<path d="M3335 575 l0 -75 31 0 c29 0 32 3 37 38 3 20 3 53 -1 72 -7 29 -12
35 -37 38 l-30 3 0 -76z"/>
<path d="M3575 575 l0 -75 33 0 c29 0 32 3 32 30 l0 31 83 -3 c81 -3 82 -3 85
-30 3 -24 8 -28 33 -28 l29 0 0 75 0 75 -30 0 c-25 0 -30 -4 -30 -25 0 -25 -1
-25 -85 -25 -84 0 -85 0 -85 25 0 22 -5 25 -32 25 l-33 0 0 -75z"/>
<path d="M3945 575 l0 -75 33 0 c29 0 32 3 32 30 l0 30 70 0 c63 0 70 2 70 20
0 18 -7 20 -70 20 -68 0 -70 1 -70 25 0 22 -4 25 -32 25 l-33 0 0 -75z"/>
<path d="M540 505 l0 -125 30 0 30 0 0 125 0 125 -30 0 -30 0 0 -125z"/>
<path d="M800 625 c0 -3 14 -33 31 -67 30 -59 30 -63 16 -94 -11 -22 -27 -36
-51 -44 -49 -16 -48 -40 3 -40 55 0 88 31 131 124 56 121 57 126 21 126 -25 0
-30 -5 -36 -30 -10 -44 -22 -45 -39 -5 -13 29 -20 35 -45 35 -17 0 -31 -2 -31
-5z"/>
<path d="M1160 505 l0 -125 30 0 30 0 0 125 0 125 -30 0 -30 0 0 -125z"/>
<path d="M1860 535 c0 -10 10 -15 30 -15 20 0 30 5 30 15 0 10 -10 15 -30 15
-20 0 -30 -5 -30 -15z"/>
<path d="M1956 534 c-5 -12 1 -15 31 -12 48 4 57 28 10 28 -22 0 -37 -6 -41
-16z"/>
<path d="M2100 535 c0 -10 10 -15 30 -15 20 0 30 5 30 15 0 10 -10 15 -30 15
-20 0 -30 -5 -30 -15z"/>
<path d="M2264 535 c27 -20 226 -19 226 1 0 11 -26 14 -122 14 -110 -1 -121
-2 -104 -15z"/>
<path d="M2560 535 c0 -10 10 -15 30 -15 20 0 30 5 30 15 0 10 -10 15 -30 15
-20 0 -30 -5 -30 -15z"/>
<path d="M1860 430 l0 -50 34 0 c30 0 38 6 65 50 l31 50 -65 0 -65 0 0 -50z"/>
<path d="M2100 430 c0 -49 1 -50 30 -50 29 0 30 1 30 50 0 49 -1 50 -30 50
-29 0 -30 -1 -30 -50z"/>
<path d="M2430 430 c0 -49 1 -50 30 -50 29 0 30 1 30 50 0 49 -1 50 -30 50
-29 0 -30 -1 -30 -50z"/>
<path d="M2560 430 l0 -50 115 0 c108 0 115 1 115 20 0 18 -7 20 -85 20 l-85
0 0 30 c0 27 -3 30 -30 30 -29 0 -30 -1 -30 -50z"/>
<path d="M2840 430 c0 -49 1 -50 30 -50 29 0 30 1 30 50 0 49 -1 50 -30 50
-29 0 -30 -1 -30 -50z"/>
<path d="M3077 449 c29 -48 71 -69 142 -69 71 0 107 15 146 62 l28 33 -32 3
c-24 3 -38 -4 -61 -26 -51 -51 -106 -50 -152 3 -15 17 -32 25 -55 25 l-34 0
18 -31z"/>
<path d="M3579 478 c-1 -2 -2 -24 -3 -50 -1 -48 -1 -48 31 -48 33 0 33 0 33
50 0 49 -1 50 -30 50 -16 0 -30 -1 -31 -2z"/>
<path d="M3810 430 c0 -49 1 -50 30 -50 29 0 30 1 30 50 0 49 -1 50 -30 50
-29 0 -30 -1 -30 -50z"/>
<path d="M3948 430 l-3 -50 113 0 c105 0 112 1 112 20 0 18 -7 20 -80 20 l-80
0 0 30 c0 26 -3 30 -29 30 -28 0 -29 -2 -33 -50z"/>
</g>
</svg>
